<svg width="60" height="60" viewBox="0 0 60 60" fill="none" xmlns="http://www.w3.org/2000/svg">
<circle cx="30" cy="30" r="30" fill="#BDBDBD"/>
<path d="M35.4815 32.2961C35.2369 32.2101 33.6907 31.461 34.6569 28.3038H34.643C37.1615 25.5154 39.0861 21.0285 39.0861 16.6111C39.0861 9.81873 34.8846 6.258 30.0015 6.258C25.1154 6.258 20.9369 9.81707 20.9369 16.6111C20.9369 21.0467 22.8507 25.5518 25.3846 28.3335C26.3723 31.1186 24.6061 32.1523 24.2369 32.2961C19.123 34.2857 13.123 37.9093 13.123 41.4866V42.8278C13.123 47.7017 21.9138 48.8098 30.0492 48.8098C38.1969 48.8098 46.8769 47.7017 46.8769 42.8278V41.4866C46.8769 37.8018 40.8477 34.2063 35.4815 32.2961ZM26.9954 46.6995C26.9954 42.4838 29.4923 36.793 29.4923 36.793L27.7646 35.3359C27.7646 33.9434 30 32.4863 30 32.4863C30 32.4863 32.2292 33.9665 32.2292 35.3359L30.5077 36.793C30.5077 36.793 33.0046 42.4623 33.0046 46.7458C33.0046 47.4173 26.9954 47.2618 26.9954 46.6995V46.6995Z" fill="white"/>
</svg>
