<svg width="25" height="25" viewBox="0 0 25 25" fill="none" xmlns="http://www.w3.org/2000/svg">
<g clip-path="url(#clip0_414_227)">
<path d="M1.5625 19.4196C1.5625 18.946 1.75064 18.4918 2.08552 18.157C2.42041 17.8221 2.87461 17.6339 3.34821 17.6339H6.91964C7.39324 17.6339 7.84745 17.8221 8.18233 18.157C8.51722 18.4918 8.70536 18.946 8.70536 19.4196V24.7768C8.70536 25.2504 8.51722 25.7046 8.18233 26.0395C7.84745 26.3744 7.39324 26.5625 6.91964 26.5625H3.34821C2.87461 26.5625 2.42041 26.3744 2.08552 26.0395C1.75064 25.7046 1.5625 25.2504 1.5625 24.7768V19.4196ZM10.4911 12.2768C10.4911 11.8032 10.6792 11.349 11.0141 11.0141C11.349 10.6792 11.8032 10.4911 12.2768 10.4911H15.8482C16.3218 10.4911 16.776 10.6792 17.1109 11.0141C17.4458 11.349 17.6339 11.8032 17.6339 12.2768V24.7768C17.6339 25.2504 17.4458 25.7046 17.1109 26.0395C16.776 26.3744 16.3218 26.5625 15.8482 26.5625H12.2768C11.8032 26.5625 11.349 26.3744 11.0141 26.0395C10.6792 25.7046 10.4911 25.2504 10.4911 24.7768V12.2768ZM19.4196 3.34821C19.4196 2.87461 19.6078 2.42041 19.9427 2.08552C20.2776 1.75064 20.7318 1.5625 21.2054 1.5625H24.7768C25.2504 1.5625 25.7046 1.75064 26.0395 2.08552C26.3744 2.42041 26.5625 2.87461 26.5625 3.34821V24.7768C26.5625 25.2504 26.3744 25.7046 26.0395 26.0395C25.7046 26.3744 25.2504 26.5625 24.7768 26.5625H21.2054C20.7318 26.5625 20.2776 26.3744 19.9427 26.0395C19.6078 25.7046 19.4196 25.2504 19.4196 24.7768V3.34821Z" fill="#2E05D5"/>
</g>
<defs>
<clipPath id="clip0_414_227">
<rect width="25" height="25" fill="white"/>
</clipPath>
</defs>
</svg>
