<svg width="419" height="288" viewBox="0 0 419 288" fill="none" xmlns="http://www.w3.org/2000/svg">
<path d="M358.731 144.193C358.731 122.359 353.738 100.813 344.133 81.2045L215.538 144.193H358.731Z" fill="#B33352" stroke="white"/>
<path d="M344.133 81.2045C328.667 49.6289 302.124 24.8474 269.562 11.5822C237.001 -1.683 200.697 -2.50461 167.568 9.27394C134.44 21.0525 106.803 44.6078 89.9241 75.4513C73.0451 106.295 68.1039 142.27 76.0421 176.522C83.9802 210.775 104.243 240.909 132.969 261.183C161.695 281.457 196.876 290.454 231.808 286.459C266.74 282.464 298.982 265.757 322.389 239.521C345.795 213.284 358.731 179.353 358.731 144.193H215.538L344.133 81.2045Z" fill="#33B35F" stroke="white"/>
<path d="M355.034 111.864L389.908 103.782" stroke="#3385B3"/>
<path d="M393.76 94.4222C393.198 94.4222 392.696 94.3256 392.256 94.1324C391.819 93.9392 391.471 93.6707 391.212 93.327C390.956 92.9804 390.817 92.5784 390.794 92.121H391.868C391.891 92.4023 391.988 92.6452 392.158 92.8497C392.329 93.0514 392.552 93.2077 392.827 93.3185C393.103 93.4293 393.408 93.4847 393.743 93.4847C394.118 93.4847 394.451 93.4193 394.74 93.2886C395.03 93.158 395.258 92.9761 395.422 92.7432C395.587 92.5102 395.669 92.2403 395.669 91.9335C395.669 91.6125 395.59 91.3298 395.431 91.0855C395.272 90.8384 395.039 90.6452 394.732 90.506C394.425 90.3668 394.05 90.2972 393.607 90.2972H392.908V89.3597H393.607C393.954 89.3597 394.258 89.2972 394.519 89.1722C394.783 89.0472 394.989 88.871 395.137 88.6437C395.287 88.4165 395.363 88.1494 395.363 87.8426C395.363 87.5472 395.297 87.2901 395.167 87.0713C395.036 86.8526 394.851 86.6821 394.613 86.5599C394.377 86.4378 394.098 86.3767 393.777 86.3767C393.476 86.3767 393.192 86.4321 392.925 86.5429C392.661 86.6509 392.445 86.8085 392.277 87.0159C392.11 87.2205 392.019 87.4676 392.005 87.7574H390.982C390.999 87.3 391.137 86.8994 391.395 86.5557C391.654 86.2091 391.992 85.9392 392.41 85.746C392.83 85.5528 393.292 85.4562 393.794 85.4562C394.334 85.4562 394.797 85.5656 395.184 85.7844C395.57 86.0003 395.867 86.2858 396.074 86.6409C396.282 86.996 396.385 87.3795 396.385 87.7915C396.385 88.283 396.256 88.702 395.998 89.0486C395.742 89.3952 395.394 89.6352 394.954 89.7688V89.8369C395.505 89.9278 395.935 90.1622 396.245 90.5401C396.554 90.9151 396.709 91.3795 396.709 91.9335C396.709 92.408 396.58 92.8341 396.321 93.2119C396.066 93.5869 395.716 93.8824 395.273 94.0983C394.83 94.3142 394.326 94.4222 393.76 94.4222ZM401.231 85.4562C401.588 85.4591 401.946 85.5273 402.304 85.6608C402.662 85.7943 402.989 86.0159 403.285 86.3256C403.58 86.6324 403.817 87.0514 403.996 87.5827C404.175 88.1139 404.265 88.7801 404.265 89.5813C404.265 90.3568 404.191 91.0457 404.043 91.648C403.898 92.2474 403.688 92.7531 403.412 93.1651C403.14 93.577 402.807 93.8895 402.415 94.1026C402.026 94.3156 401.586 94.4222 401.094 94.4222C400.606 94.4222 400.169 94.3256 399.786 94.1324C399.405 93.9364 399.093 93.6651 398.848 93.3185C398.607 92.969 398.452 92.5642 398.384 92.104H399.424C399.517 92.5045 399.704 92.8355 399.982 93.0969C400.263 93.3554 400.634 93.4847 401.094 93.4847C401.767 93.4847 402.299 93.1906 402.688 92.6026C403.08 92.0145 403.276 91.1835 403.276 90.1097H403.208C403.049 90.3483 402.86 90.5543 402.641 90.7276C402.422 90.9009 402.179 91.0344 401.912 91.1281C401.645 91.2219 401.361 91.2688 401.06 91.2688C400.56 91.2688 400.101 91.1452 399.684 90.898C399.269 90.648 398.936 90.3057 398.686 89.871C398.439 89.4335 398.316 88.9335 398.316 88.371C398.316 87.8369 398.435 87.3483 398.674 86.9051C398.915 86.4591 399.253 86.104 399.688 85.8398C400.125 85.5756 400.64 85.4477 401.231 85.4562ZM401.231 86.3937C400.873 86.3937 400.55 86.4832 400.263 86.6622C399.979 86.8384 399.753 87.077 399.586 87.3781C399.421 87.6764 399.338 88.0074 399.338 88.371C399.338 88.7347 399.418 89.0656 399.577 89.3639C399.739 89.6594 399.959 89.8952 400.238 90.0713C400.519 90.2446 400.838 90.3313 401.196 90.3313C401.466 90.3313 401.718 90.2787 401.951 90.1736C402.184 90.0656 402.387 89.9193 402.56 89.7347C402.736 89.5472 402.874 89.3355 402.973 89.0997C403.073 88.8611 403.123 88.6125 403.123 88.354C403.123 88.0131 403.04 87.6935 402.875 87.3952C402.713 87.0969 402.489 86.8554 402.202 86.6707C401.918 86.4861 401.594 86.3937 401.231 86.3937Z" fill="#3385B3"/>
<path d="M76.0421 176.522L41.1681 184.605" stroke="#3385B3"/>
<path d="M19.1912 173.336V172.467L23.0264 166.398H23.6571V167.745H23.2309L20.3332 172.33V172.398H25.498V173.336H19.1912ZM23.2991 175.126V173.072V172.667V166.398H24.3048V175.126H23.2991ZM29.8733 166.279C30.2313 166.282 30.5892 166.35 30.9472 166.484C31.3051 166.617 31.6319 166.839 31.9273 167.148C32.2228 167.455 32.46 167.874 32.639 168.406C32.8179 168.937 32.9074 169.603 32.9074 170.404C32.9074 171.18 32.8336 171.869 32.6858 172.471C32.5409 173.07 32.3307 173.576 32.0551 173.988C31.7824 174.4 31.45 174.712 31.058 174.925C30.6688 175.138 30.2284 175.245 29.737 175.245C29.2483 175.245 28.8123 175.148 28.4287 174.955C28.048 174.759 27.7355 174.488 27.4912 174.141C27.2498 173.792 27.0949 173.387 27.0267 172.927H28.0665C28.1603 173.327 28.3463 173.658 28.6248 173.92C28.906 174.178 29.2767 174.308 29.737 174.308C30.4103 174.308 30.9415 174.013 31.3307 173.425C31.7228 172.837 31.9188 172.006 31.9188 170.933H31.8506C31.6915 171.171 31.5026 171.377 31.2838 171.55C31.0651 171.724 30.8222 171.857 30.5551 171.951C30.2881 172.045 30.004 172.092 29.7029 172.092C29.2029 172.092 28.7441 171.968 28.3265 171.721C27.9117 171.471 27.5793 171.129 27.3293 170.694C27.0821 170.256 26.9586 169.756 26.9586 169.194C26.9586 168.66 27.0779 168.171 27.3165 167.728C27.558 167.282 27.8961 166.927 28.3307 166.663C28.7682 166.398 29.2824 166.271 29.8733 166.279ZM29.8733 167.217C29.5154 167.217 29.1929 167.306 28.906 167.485C28.6219 167.661 28.3961 167.9 28.2284 168.201C28.0637 168.499 27.9813 168.83 27.9813 169.194C27.9813 169.558 28.0608 169.888 28.2199 170.187C28.3819 170.482 28.602 170.718 28.8804 170.894C29.1617 171.067 29.4813 171.154 29.8392 171.154C30.1091 171.154 30.3605 171.102 30.5935 170.996C30.8265 170.888 31.0296 170.742 31.2029 170.558C31.379 170.37 31.5168 170.158 31.6162 169.923C31.7157 169.684 31.7654 169.435 31.7654 169.177C31.7654 168.836 31.683 168.516 31.5182 168.218C31.3563 167.92 31.1319 167.678 30.8449 167.494C30.5608 167.309 30.237 167.217 29.8733 167.217ZM37.3616 166.279C37.7196 166.282 38.0775 166.35 38.4355 166.484C38.7934 166.617 39.1201 166.839 39.4156 167.148C39.711 167.455 39.9483 167.874 40.1272 168.406C40.3062 168.937 40.3957 169.603 40.3957 170.404C40.3957 171.18 40.3218 171.869 40.1741 172.471C40.0292 173.07 39.819 173.576 39.5434 173.988C39.2707 174.4 38.9383 174.712 38.5463 174.925C38.1571 175.138 37.7167 175.245 37.2252 175.245C36.7366 175.245 36.3005 175.148 35.917 174.955C35.5363 174.759 35.2238 174.488 34.9795 174.141C34.738 173.792 34.5832 173.387 34.515 172.927H35.5548C35.6485 173.327 35.8346 173.658 36.113 173.92C36.3943 174.178 36.765 174.308 37.2252 174.308C37.8985 174.308 38.4298 174.013 38.819 173.425C39.211 172.837 39.4071 172.006 39.4071 170.933H39.3389C39.1798 171.171 38.9909 171.377 38.7721 171.55C38.5534 171.724 38.3105 171.857 38.0434 171.951C37.7764 172.045 37.4923 172.092 37.1912 172.092C36.6912 172.092 36.2324 171.968 35.8147 171.721C35.4 171.471 35.0676 171.129 34.8176 170.694C34.5704 170.256 34.4468 169.756 34.4468 169.194C34.4468 168.66 34.5662 168.171 34.8048 167.728C35.0463 167.282 35.3843 166.927 35.819 166.663C36.2565 166.398 36.7707 166.271 37.3616 166.279ZM37.3616 167.217C37.0037 167.217 36.6812 167.306 36.3943 167.485C36.1102 167.661 35.8843 167.9 35.7167 168.201C35.552 168.499 35.4696 168.83 35.4696 169.194C35.4696 169.558 35.5491 169.888 35.7082 170.187C35.8701 170.482 36.0903 170.718 36.3687 170.894C36.65 171.067 36.9696 171.154 37.3275 171.154C37.5974 171.154 37.8488 171.102 38.0818 170.996C38.3147 170.888 38.5179 170.742 38.6912 170.558C38.8673 170.37 39.0051 170.158 39.1045 169.923C39.2039 169.684 39.2537 169.435 39.2537 169.177C39.2537 168.836 39.1713 168.516 39.0065 168.218C38.8446 167.92 38.6201 167.678 38.3332 167.494C38.0491 167.309 37.7252 167.217 37.3616 167.217Z" fill="#3385B3"/>
</svg>
