<svg width="25" height="25" viewBox="0 0 25 25" fill="none" xmlns="http://www.w3.org/2000/svg">
<path d="M21.0938 3.90625H3.90625C3.49185 3.90625 3.09442 4.07087 2.8014 4.3639C2.50837 4.65692 2.34375 5.05435 2.34375 5.46875V19.5312C2.34375 19.9457 2.50837 20.3431 2.8014 20.6361C3.09442 20.9291 3.49185 21.0937 3.90625 21.0937H5.21484C5.36278 21.0942 5.50771 21.052 5.63237 20.9724C5.75704 20.8927 5.85617 20.7789 5.91797 20.6445C6.30022 19.8445 6.90109 19.1691 7.6511 18.6962C8.4011 18.2234 9.26963 17.9724 10.1562 17.9724C11.0429 17.9724 11.9114 18.2234 12.6614 18.6962C13.4114 19.1691 14.0123 19.8445 14.3945 20.6445C14.4563 20.7789 14.5555 20.8927 14.6801 20.9724C14.8048 21.052 14.9497 21.0942 15.0977 21.0937H21.0938C21.5082 21.0937 21.9056 20.9291 22.1986 20.6361C22.4916 20.3431 22.6562 19.9457 22.6562 19.5312V5.46875C22.6562 5.05435 22.4916 4.65692 22.1986 4.3639C21.9056 4.07087 21.5082 3.90625 21.0938 3.90625ZM7.8125 14.0625C7.8125 13.5989 7.94996 13.1458 8.20749 12.7604C8.46503 12.375 8.83107 12.0745 9.25934 11.8972C9.6876 11.7198 10.1588 11.6733 10.6135 11.7638C11.0681 11.8542 11.4858 12.0774 11.8135 12.4052C12.1413 12.733 12.3645 13.1506 12.455 13.6053C12.5454 14.0599 12.499 14.5311 12.3216 14.9594C12.1442 15.3877 11.8438 15.7537 11.4584 16.0113C11.0729 16.2688 10.6198 16.4062 10.1562 16.4062C9.53544 16.4037 8.94079 16.1559 8.50181 15.7169C8.06283 15.278 7.81507 14.6833 7.8125 14.0625ZM21.0938 19.5312H15.5664C14.9143 18.4094 13.9322 17.516 12.7539 16.9727C13.3453 16.4461 13.7627 15.7522 13.9507 14.983C14.1388 14.2138 14.0886 13.4056 13.8069 12.6655C13.5252 11.9255 13.0252 11.2885 12.3732 10.8391C11.7213 10.3897 10.9481 10.149 10.1562 10.149C9.36439 10.149 8.59123 10.3897 7.93927 10.8391C7.2873 11.2885 6.78731 11.9255 6.50558 12.6655C6.22386 13.4056 6.1737 14.2138 6.36175 14.983C6.54981 15.7522 6.9672 16.4461 7.55859 16.9727C6.38028 17.516 5.39816 18.4094 4.74609 19.5312H3.90625V5.46875H21.0938V19.5312ZM5.46875 9.375V7.8125C5.46875 7.6053 5.55106 7.40659 5.69757 7.26007C5.84409 7.11356 6.0428 7.03125 6.25 7.03125H18.75C18.9572 7.03125 19.1559 7.11356 19.3024 7.26007C19.4489 7.40659 19.5312 7.6053 19.5312 7.8125V17.1875C19.5312 17.3947 19.4489 17.5934 19.3024 17.7399C19.1559 17.8864 18.9572 17.9687 18.75 17.9687H17.1875C16.9803 17.9687 16.7816 17.8864 16.6351 17.7399C16.4886 17.5934 16.4062 17.3947 16.4062 17.1875C16.4062 16.9803 16.4886 16.7816 16.6351 16.6351C16.7816 16.4886 16.9803 16.4062 17.1875 16.4062H17.9688V8.59375H7.03125V9.375C7.03125 9.5822 6.94894 9.78091 6.80243 9.92743C6.65591 10.0739 6.4572 10.1562 6.25 10.1562C6.0428 10.1562 5.84409 10.0739 5.69757 9.92743C5.55106 9.78091 5.46875 9.5822 5.46875 9.375Z" fill="#2E05D5"/>
</svg>
