<svg width="371" height="252" viewBox="0 0 371 252" fill="none" xmlns="http://www.w3.org/2000/svg">
<rect x="108.403" y="27.8752" width="248.295" height="224.034" fill="white"/>
<path d="M236.429 76.947C219.919 39.6844 257.093 37.4202 262.864 52.989C274.145 72.6806 269.367 81.2152 261.618 83.8243C263.531 91.3268 268.588 108.283 263.617 114.317C257.403 121.858 253.272 125.455 249.17 115.54C245.888 107.609 243.196 91.166 242.259 83.9362C239.83 84.6329 235.263 84.2103 236.429 76.947Z" fill="#FFFAE2"/>
<path d="M251.949 84.7259C254.949 85.0437 258.483 84.8797 261.618 83.8243M262.864 52.989C257.093 37.4202 219.919 39.6844 236.429 76.947M262.864 52.989C274.145 72.6806 269.367 81.2152 261.618 83.8243M262.864 52.989C262.864 52.989 241.656 65.1024 252.759 57.953C263.863 50.8035 241.1 62.1228 241.1 62.1228L243.432 74.6311C240.62 73.0146 237.602 74.4325 236.429 76.947M236.429 76.947C235.263 84.2103 239.83 84.6329 242.259 83.9362C243.196 91.166 245.888 107.609 249.17 115.54C253.272 125.455 257.403 121.858 263.617 114.317C268.588 108.283 263.531 91.3268 261.618 83.8243" stroke="#232540" stroke-width="4" stroke-linecap="round" stroke-linejoin="round"/>
<path d="M236.242 77.2127C219.336 42.4637 255.285 34.5238 263.253 52.9893L241.294 61.9241L243.821 75.426C239.157 72.8446 236.401 76.2197 236.242 77.2127Z" fill="#232540"/>
<rect x="-4.5" y="4.5" width="219.163" height="230.004" rx="23.5" transform="matrix(-1 0 0 1 347.699 0)" stroke="white" stroke-width="9"/>
<path d="M213.193 249.328L222.905 206.999H270.492L258.256 249.328H213.193Z" fill="#232540"/>
<path d="M299.4 249.328L291.017 203.902H253.974V225.269L262.233 241.585L270.351 249.328H299.4Z" fill="#232540"/>
<path d="M261.201 235.39L264.04 220.42" stroke="#3864FF" stroke-width="4" stroke-linecap="round" stroke-linejoin="round"/>
<path d="M346.943 110.482C350.196 106.212 357.364 97.2974 359.112 92.0788C359.112 92.0788 364.61 80.0304 363.319 78.4171C362.054 76.835 358.857 84.4765 356.458 87.7693C359.467 83.6117 362.356 72.6382 361.033 72.0596C358.78 71.0749 353.777 82.7804 351.42 86.8469C353.802 82.6333 359.511 70.4941 357.365 67.6364C356.404 66.3559 349.946 78.3371 347.759 83.9C349.061 80.4638 351.021 71.8648 351.021 70.0855C351.021 64.2677 343.252 79.6819 341.237 86.0838L334.493 107.803L346.943 110.482Z" fill="#FFFAE2" stroke="#232540" stroke-width="4" stroke-linecap="round" stroke-linejoin="round"/>
<path d="M334.997 91.3398C334.669 95.0669 332.326 102.264 330.721 105.404L337.673 102.234L344.625 99.0641C346.881 96.7018 342.594 92.6989 340.792 90.7396C339.616 82.5243 339.698 78.5949 337.75 78.3661C334.783 78.0176 335.471 85.9637 334.997 91.3398Z" fill="#FFFAE2"/>
<path d="M330.721 105.403C332.327 102.264 334.669 95.0667 334.997 91.3396C335.471 85.9635 334.783 78.0174 337.75 78.3659C339.699 78.5947 339.617 82.5241 340.793 90.7394C343.024 90.7497 344.811 96.2192 342.555 98.5815" stroke="#232540" stroke-width="4" stroke-linecap="round" stroke-linejoin="round"/>
<path d="M310.664 135.4C295.944 93.3855 270.849 89.6721 260.141 93.0672H245.171C215.543 96.8868 178.742 149.724 182.485 167.548C185.479 181.808 209.898 186.58 220.502 187.217L218.038 211.155L303.491 215.611L296.006 156.408C297.774 161.395 304.365 170.604 316.59 167.548C328.815 164.493 344.681 128.742 350.502 110.175L332.807 93.0672L310.664 135.4Z" fill="#3864FF"/>
<path d="M239.624 89.1434C239.624 89.1434 242.378 100.723 244.06 102.873L264.489 100.959L265.701 87.9127L239.624 89.1434Z" fill="#3864FF"/>
<path d="M215.255 155.645C215.255 148.299 224.972 138.966 224.972 138.966L222.251 162.198C218.177 160.355 215.256 157.87 215.255 155.645Z" fill="#FFFAE2"/>
<path d="M244.598 167.956C244.598 167.956 231.632 166.442 222.251 162.198M222.251 162.198C218.177 160.355 215.256 157.87 215.255 155.645C215.255 148.299 224.972 138.966 224.972 138.966L222.251 162.198Z" stroke="#232540" stroke-width="4" stroke-linecap="round" stroke-linejoin="round"/>
<path d="M294.927 152.667C294.927 152.667 287.543 123.677 279.187 117.918" stroke="#232540" stroke-width="4" stroke-linecap="round" stroke-linejoin="round"/>
<path d="M258.792 67.2326C272.543 64.3163 274.894 64.4221 259.753 71.7884L258.792 67.2326Z" fill="#FFFAE2"/>
<path d="M260.506 66.2004C271.444 65.9306 274.021 65.3165 262.279 71.1614" stroke="#232540" stroke-width="4" stroke-linecap="round" stroke-linejoin="round"/>
<path d="M262.292 71.3109L263.712 75.2839C262.668 76.6231 259.895 78.4783 257.157 75.1854" stroke="#232540" stroke-width="4" stroke-linecap="round" stroke-linejoin="round"/>
<ellipse rx="1.042" ry="2.47416" transform="matrix(0.911399 -0.413966 0.397763 0.916426 263.111 62.5624)" fill="#232540"/>
<ellipse rx="1.042" ry="2.47416" transform="matrix(0.911399 -0.413966 0.397763 0.916426 254.328 66.0545)" fill="#232540"/>
<path d="M234.006 172.713C218.609 179.879 245.23 181.129 251.835 181.73C257.44 182.24 289.755 175.674 289.499 174.23C289.08 171.865 276.758 174.802 274.747 173.752C279.31 172.883 293.057 169.697 293.224 167.744C293.391 165.791 278.764 169.571 275.069 169.274C282.066 166.911 295.602 162.429 293.656 160.161C292.695 159.041 278.037 164.163 270.611 165.408C277.174 162.205 291.963 159.5 289.97 157.55C288.628 156.238 271.607 159.481 264.155 162.014C266.273 160.236 267.593 157.74 268.411 155.473C269.052 153.695 266.982 152.595 265.587 153.866C259.528 159.386 247.448 169.092 234.006 172.713Z" fill="#FFFAE2" stroke="#232540" stroke-width="4" stroke-linecap="round" stroke-linejoin="round"/>
<path d="M259.172 196.351L230.024 190.464V161.205H254.119L259.172 196.351Z" fill="#3864FF"/>
<path d="M225.943 187.614C225.943 187.614 237.214 189.6 251.788 187.614" stroke="#232540" stroke-width="4" stroke-linecap="round" stroke-linejoin="round"/>
<path d="M115.279 127.503H235.239L250.178 203.418H131.11L115.279 127.503Z" fill="white"/>
<path d="M106.541 127.503H226.986L241.986 203.418H122.436L106.541 127.503Z" fill="#C9E7FC"/>
<path d="M171.381 203.385H193.577V242.617H176.214L171.381 203.385Z" fill="#C9E7FC"/>
<rect x="204.418" y="234.358" width="66.0744" height="5.67827" fill="#C9E7FC"/>
<rect x="280.3" y="229.712" width="20.1321" height="10.3241" fill="#C9E7FC"/>
<rect x="280.3" y="229.712" width="14.97" height="10.3241" fill="#C9E7FC"/>
<rect x="3.22629" y="248.683" width="6.45258" height="317.725" transform="rotate(-90 3.22629 248.683)" fill="#C9E7FC" stroke="#C9E7FC" stroke-width="6.45258"/>
</svg>
