<svg width="66" height="66" viewBox="0 0 66 66" fill="none" xmlns="http://www.w3.org/2000/svg">
<g filter="url(#filter0_d_579_73)">
<circle cx="33" cy="29" r="17" fill="#3041DC"/>
</g>
<path d="M34.3429 29.4405L32.7474 31.4749L31.9045 30.4003C31.8891 30.3807 31.8695 30.3648 31.8472 30.3539C31.8248 30.343 31.8002 30.3373 31.7753 30.3373C31.7504 30.3373 31.7258 30.343 31.7034 30.3539C31.681 30.3648 31.6614 30.3807 31.6461 30.4003L29.5994 33.0089C29.5805 33.0331 29.5687 33.0621 29.5655 33.0926C29.5623 33.1232 29.5677 33.154 29.5812 33.1816C29.5947 33.2092 29.6157 33.2324 29.6417 33.2487C29.6678 33.2649 29.6979 33.2735 29.7286 33.2734H37.2734C37.4108 33.2734 37.4867 33.1155 37.4026 33.0089L34.6033 29.4405C34.5878 29.4209 34.568 29.405 34.5454 29.3941C34.5229 29.3832 34.4981 29.3775 34.4731 29.3775C34.448 29.3775 34.4233 29.3832 34.4008 29.3941C34.3782 29.405 34.3584 29.4209 34.3429 29.4405ZM30.3828 28.0645C30.3828 28.282 30.4692 28.4907 30.6231 28.6445C30.7769 28.7983 30.9856 28.8848 31.2031 28.8848C31.4207 28.8848 31.6293 28.7983 31.7832 28.6445C31.937 28.4907 32.0234 28.282 32.0234 28.0645C32.0234 27.8469 31.937 27.6382 31.7832 27.4844C31.6293 27.3306 31.4207 27.2441 31.2031 27.2441C30.9856 27.2441 30.7769 27.3306 30.6231 27.4844C30.4692 27.6382 30.3828 27.8469 30.3828 28.0645ZM40.526 24.9186L36.1127 20.5053C35.9896 20.3822 35.8235 20.3125 35.6492 20.3125H26.9375C26.5745 20.3125 26.2812 20.6058 26.2812 20.9688V38.0312C26.2812 38.3942 26.5745 38.6875 26.9375 38.6875H40.0625C40.4255 38.6875 40.7188 38.3942 40.7188 38.0312V25.3841C40.7188 25.2098 40.649 25.0416 40.526 24.9186ZM39.2053 25.6855H35.3457V21.826L39.2053 25.6855ZM39.2422 37.2109H27.7578V21.7891H33.9512V26.2188C33.9512 26.4472 34.0419 26.6663 34.2034 26.8278C34.365 26.9893 34.5841 27.0801 34.8125 27.0801H39.2422V37.2109Z" fill="white"/>
<defs>
<filter id="filter0_d_579_73" x="0" y="0" width="66" height="66" filterUnits="userSpaceOnUse" color-interpolation-filters="sRGB">
<feFlood flood-opacity="0" result="BackgroundImageFix"/>
<feColorMatrix in="SourceAlpha" type="matrix" values="0 0 0 0 0 0 0 0 0 0 0 0 0 0 0 0 0 0 127 0" result="hardAlpha"/>
<feOffset dy="4"/>
<feGaussianBlur stdDeviation="8"/>
<feComposite in2="hardAlpha" operator="out"/>
<feColorMatrix type="matrix" values="0 0 0 0 0 0 0 0 0 0 0 0 0 0 0 0 0 0 0.25 0"/>
<feBlend mode="normal" in2="BackgroundImageFix" result="effect1_dropShadow_579_73"/>
<feBlend mode="normal" in="SourceGraphic" in2="effect1_dropShadow_579_73" result="shape"/>
</filter>
</defs>
</svg>
