<svg width="25" height="25" viewBox="0 0 25 25" fill="none" xmlns="http://www.w3.org/2000/svg">
<path fill-rule="evenodd" clip-rule="evenodd" d="M12.5 23.75C18.7131 23.75 23.75 18.7131 23.75 12.5C23.75 6.28686 18.7131 1.25 12.5 1.25C6.28687 1.25 1.25 6.28686 1.25 12.5C1.25 18.7131 6.28687 23.75 12.5 23.75ZM12.5 25C19.4037 25 25 19.4037 25 12.5C25 5.59624 19.4037 0 12.5 0C5.59625 0 0 5.59624 0 12.5C0 19.4037 5.59625 25 12.5 25Z" fill="#2E05D5"/>
<path d="M5.625 19.7687C5.625 19.1231 6.1075 18.5775 6.75 18.5062C11.5719 17.9725 14.7 18.0206 19.5112 18.5181C19.7515 18.5433 19.9792 18.638 20.1666 18.7905C20.3539 18.943 20.4928 19.1468 20.5662 19.3769C20.6397 19.6071 20.6445 19.8536 20.5801 20.0864C20.5158 20.3193 20.385 20.5283 20.2038 20.6881C14.5256 25.6375 11.2806 25.5693 6.025 20.6931C5.76875 20.4556 5.625 20.1181 5.625 19.7693V19.7687Z" fill="#2E05D5"/>
<path fill-rule="evenodd" clip-rule="evenodd" d="M19.4469 19.1393C14.6738 18.6456 11.5906 18.5993 6.81813 19.1275C6.66103 19.1458 6.5162 19.2214 6.41138 19.3398C6.30655 19.4582 6.24909 19.6112 6.25 19.7693C6.25 19.9481 6.32438 20.1175 6.45 20.235C9.055 22.6512 11.0288 23.7431 12.9581 23.75C14.8944 23.7568 16.9744 22.6737 19.7931 20.2175C19.8827 20.1378 19.9471 20.0338 19.9787 19.9181C20.0102 19.8024 20.0075 19.6801 19.9708 19.566C19.9342 19.4518 19.8651 19.3508 19.7721 19.2752C19.6791 19.1996 19.5661 19.1526 19.4469 19.14V19.1393ZM6.68125 17.885C11.5538 17.3456 14.7275 17.3943 19.5763 17.8962C19.9377 17.9339 20.2803 18.0762 20.5621 18.3057C20.8439 18.5351 21.0527 18.8417 21.163 19.188C21.2732 19.5343 21.2801 19.9052 21.1827 20.2553C21.0854 20.6055 20.8881 20.9196 20.615 21.1593C17.7556 23.6518 15.3744 25.0093 12.9544 25C10.5275 24.9912 8.25125 23.6106 5.60063 21.1512C5.41085 20.9744 5.25956 20.7604 5.15622 20.5226C5.05287 20.2847 4.9997 20.0281 5 19.7687C4.99909 19.3027 5.17013 18.8528 5.48036 18.5051C5.79058 18.1574 6.21818 17.9364 6.68125 17.8843V17.885Z" fill="#2E05D5"/>
<path d="M18.125 9.99998C18.125 11.3261 17.5982 12.5978 16.6605 13.5355C15.7229 14.4732 14.4511 15 13.125 15C11.7989 15 10.5271 14.4732 9.58947 13.5355C8.65178 12.5978 8.125 11.3261 8.125 9.99998C8.125 8.6739 8.65178 7.40213 9.58947 6.46445C10.5271 5.52677 11.7989 4.99998 13.125 4.99998C14.4511 4.99998 15.7229 5.52677 16.6605 6.46445C17.5982 7.40213 18.125 8.6739 18.125 9.99998Z" fill="#2E05D5"/>
<path fill-rule="evenodd" clip-rule="evenodd" d="M13.125 13.75C14.1196 13.75 15.0734 13.3549 15.7767 12.6516C16.4799 11.9484 16.875 10.9945 16.875 9.99998C16.875 9.00542 16.4799 8.05159 15.7767 7.34833C15.0734 6.64507 14.1196 6.24998 13.125 6.24998C12.1304 6.24998 11.1766 6.64507 10.4733 7.34833C9.77009 8.05159 9.375 9.00542 9.375 9.99998C9.375 10.9945 9.77009 11.9484 10.4733 12.6516C11.1766 13.3549 12.1304 13.75 13.125 13.75ZM13.125 15C14.4511 15 15.7229 14.4732 16.6605 13.5355C17.5982 12.5978 18.125 11.3261 18.125 9.99998C18.125 8.6739 17.5982 7.40213 16.6605 6.46445C15.7229 5.52677 14.4511 4.99998 13.125 4.99998C11.7989 4.99998 10.5271 5.52677 9.58947 6.46445C8.65178 7.40213 8.125 8.6739 8.125 9.99998C8.125 11.3261 8.65178 12.5978 9.58947 13.5355C10.5271 14.4732 11.7989 15 13.125 15Z" fill="#2E05D5"/>
</svg>
