<svg width="251" height="440" viewBox="0 0 251 440" fill="none" xmlns="http://www.w3.org/2000/svg">
<rect x="-4.5" y="4.5" width="218.131" height="349.247" rx="23.5" transform="matrix(-1 0 0 1 241.876 0)" stroke="white" stroke-width="9"/>
<path d="M140.364 70.5324C123.475 63.0689 120.433 62.5081 137.955 75.6429L140.364 70.5324Z" fill="#FFFAE2"/>
<path d="M138.432 68.8109C124.469 65.2998 121.321 63.8211 134.877 74.1639" stroke="#232540" stroke-width="4" stroke-linecap="round" stroke-linejoin="round"/>
<ellipse rx="1.35858" ry="3.0256" transform="matrix(-0.814841 -0.579684 -0.610703 0.791859 136.03 63.746)" fill="#232540"/>
<ellipse rx="1.35858" ry="3.0256" transform="matrix(-0.814841 -0.579684 -0.610703 0.79186 146.395 70.441)" fill="#232540"/>
<path d="M136.868 60.0765C129.599 68.4638 119.033 85.8032 137.821 90.7242L137.821 115.327L161.865 115.327L158.675 98.8931L156.975 89.9466L161.471 88.2691C168.905 85.66 176.733 71.3815 162.589 58.7398C154.202 52.4821 144.696 52.4826 136.868 60.0765Z" fill="#FFFAE2"/>
<path d="M136.868 60.0765L142.739 63.3469L137.821 71.4369C140.98 68.623 145.201 70.3817 145.905 71.4369C149.985 77.5578 143.876 82.8066 139.029 83.1793L156.975 89.9466M136.868 60.0765C129.599 68.4638 119.033 85.8032 137.821 90.7242M136.868 60.0765C144.696 52.4826 154.202 52.4821 162.589 58.7398C176.733 71.3815 168.905 85.66 161.471 88.2691L156.975 89.9466M137.821 90.7242C140.43 91.2834 135.137 93.8555 137.821 90.7242ZM137.821 90.7242C135.92 92.2153 142.207 92.5135 137.821 90.7242ZM137.821 90.7242L137.821 115.327L161.865 115.327L158.675 98.8931L156.975 89.9466" stroke="#232540" stroke-width="4" stroke-linecap="round" stroke-linejoin="round"/>
<path d="M145.201 70.9372C150.829 74.2509 144.771 83.0233 139.925 83.3961L156.975 89.9482L161.471 88.2707C168.905 85.6616 176.733 71.3832 162.589 58.7415C154.202 52.4837 144.696 52.4843 136.868 60.0782L142.387 63.7102L138.692 69.6782C138.692 69.6782 143.464 69.9143 145.201 70.9372Z" fill="#232540"/>
<path d="M246.376 55.3589C246.376 42.3803 235.855 31.8589 222.876 31.8589H28.2455V231.136C28.2455 244.114 38.7668 254.636 51.7455 254.636H222.876C235.855 254.636 246.376 244.114 246.376 231.136V55.3589Z" stroke="white" stroke-width="9"/>
<path d="M10.9111 81.0057C9.96551 82.4089 23.0604 100.338 28.5805 107.629L32.5683 105.802L41.4625 101.594C41.4035 99.6838 41.1422 102.154 40.4214 99.6279C39.5203 96.4702 40.9761 79.8416 38.893 78.4378C37.2266 77.3148 35.4898 84.9863 34.8296 88.9624C32.417 81.5553 27.2858 67.045 26.0625 68.2611C24.8392 69.4771 27.2314 79.7612 28.5805 84.7512C26.3056 79.1373 21.2416 68.0731 19.1851 68.7277C17.3304 69.3181 21.0638 78.5149 23.7684 84.375C21.387 79.5025 17.2314 72.3157 15.2289 72.3157C13.8081 72.3157 17.9852 84.2425 20.27 88.8429C15.7864 82.7608 12.0931 79.2517 10.9111 81.0057Z" fill="#FFFAE2" stroke="#232540" stroke-width="4" stroke-linecap="round" stroke-linejoin="round"/>
<path d="M211.175 226.723C210.441 232.871 210.585 245.439 213.193 249.543C214.594 251.747 215.47 247.211 215.174 243.213C216.08 249.442 218.314 259.276 220.681 259.423C221.978 259.503 220.478 248.185 219.777 243.654C220.695 249.223 222.195 261.859 224.718 261.79C226.111 261.752 226.145 257.987 225.67 253.395C226.327 256.838 227.153 259.232 228.44 258.618C230.984 257.404 226.522 231.112 223.521 217.636L211.175 226.723Z" fill="#FFFAE2" stroke="#232540" stroke-width="4" stroke-linecap="round" stroke-linejoin="round"/>
<path d="M179.877 417.432L178.118 400.226L198.519 400.226L202.036 435.355L161.938 435.355C165.057 422.626 165.104 417.432 179.877 417.432Z" fill="#51B6FF" stroke="#51B6FF" stroke-width="4"/>
<path d="M99.3563 416.719L99.3283 403.04L120.082 401.284L120.152 435.389L69.4916 435.283C72.2802 421.242 86.8669 417.26 99.3563 416.719Z" fill="#51B6FF" stroke="#51B6FF" stroke-width="4"/>
<path d="M90.681 408.826C97.3735 275.471 112.99 223.226 119.961 213.773L168.064 206.857L124.144 412.976L90.681 408.826Z" fill="#232540"/>
<path d="M171.368 410.866L157.512 267.765L157.512 202.091C165.364 192.413 182.453 180.522 187.996 210.387C193.539 240.251 200.467 356.483 203.238 410.866L171.368 410.866Z" fill="#232540"/>
<path d="M158.214 253.99L161.028 253.286L163.842 252.583" stroke="#51B6FF" stroke-width="4" stroke-linecap="round" stroke-linejoin="round"/>
<path d="M133.594 98.1691L138.167 106.259L159.974 104.149L163.14 96.7621L133.594 98.1691Z" fill="#51B6FF" stroke="#51B6FF" stroke-width="4"/>
<path d="M228.321 224.789C210.049 110.761 167.646 94.3644 148.728 100.42C112.739 100.42 78.8255 125.108 66.3676 137.452L42.836 93.4334L23.9028 106.531C26.2292 116.387 52.5255 162.605 62.9071 166.797C71.2124 170.151 96.8203 154.221 108.586 145.836L108.586 221.296L193.715 221.296L190.255 186.361L208.25 231.777L228.321 224.789Z" fill="#51B6FF"/>
<mask id="mask0_690_298" style="mask-type:alpha" maskUnits="userSpaceOnUse" x="23" y="93" width="206" height="139">
<path d="M228.321 224.789C210.049 110.761 167.646 94.3644 148.728 100.42C112.739 100.42 78.8255 125.108 66.3676 137.452L42.836 93.4334L23.9028 106.531C26.2292 116.387 52.5255 162.605 62.9071 166.797C71.2124 170.151 96.8203 154.221 108.586 145.836L108.586 221.296L193.715 221.296L190.255 186.361L208.25 231.777L228.321 224.789Z" fill="#51B6FF"/>
</mask>
<g mask="url(#mask0_690_298)">
<path d="M24.1482 187.899C35.0241 167.054 76.2977 104.274 83.7827 127.503C91.2677 145.57 98.9581 157.75 107.506 159.412C120.83 162.003 129.965 150.392 137.817 141.449C149.19 128.498 167.521 95.5923 189.67 106.015C208.866 115.049 233.037 133.479 248.96 109.594" stroke="#FFFAE2" stroke-width="4" stroke-linecap="round" stroke-linejoin="round"/>
<path d="M46.882 204.318C57.3346 191.099 65.4192 182.061 82.2457 177.795C93.1957 175.019 105.305 172.743 116.627 172.743C134.981 172.743 148.422 177.211 162.796 161.938C170.737 153.501 171.809 136.747 180.803 129.167C189.045 122.22 201.011 126.169 211.071 123.487" stroke="#FFFAE2" stroke-width="4" stroke-linecap="round" stroke-linejoin="round"/>
<path d="M103.716 224.526C107.679 218.26 111.428 210.244 118.03 206.283C128.795 199.824 141.141 195.514 153.394 193.021C161.294 191.415 169.514 191.727 177.251 190.145C187.352 188.078 185.045 181.223 189.347 172.365C190.653 169.677 201.237 167.099 212.456 164.482C228.987 160.627 238.09 165.2 225.722 176.826C207.754 193.716 184.313 215.554 199.791 224.526" stroke="#FFFAE2" stroke-width="4" stroke-linecap="round" stroke-linejoin="round"/>
<path d="M26.0468 145.694C30.4255 127.304 50.913 120.589 67.5852 117.347C72.6913 116.354 77.7409 116.943 82.8814 116.575C88.3177 116.187 90.7043 111.349 94.2483 107.805" stroke="#FFFAE2" stroke-width="4" stroke-linecap="round" stroke-linejoin="round"/>
</g>
<path d="M189.871 182.235C189.402 161.717 180.163 116.389 166.656 103.445" stroke="#232540" stroke-width="4" stroke-linecap="round" stroke-linejoin="round"/>
<path d="M110.378 145.302C113.543 143.544 117.061 141.081 119.875 138.267" stroke="#232540" stroke-width="4" stroke-linecap="round" stroke-linejoin="round"/>
</svg>
