<svg width="25" height="26" viewBox="0 0 25 26" fill="none" xmlns="http://www.w3.org/2000/svg">
<path d="M0 13C0 15.3891 1.97941 17.3333 4.41176 17.3333C5.57941 17.3333 6.63529 16.8783 7.425 16.1489L16.2353 21.0947C16.2088 21.2824 16.1765 21.4702 16.1765 21.6667C16.1765 24.0558 18.1559 26 20.5882 26C23.0206 26 25 24.0558 25 21.6667C25 19.2776 23.0206 17.3333 20.5882 17.3333C19.4206 17.3333 18.3647 17.7883 17.575 18.5178L8.76471 13.5734C8.79118 13.3842 8.82353 13.1964 8.82353 13C8.82353 12.8036 8.79118 12.6158 8.76471 12.4266L17.575 7.48222C18.3647 8.21167 19.4206 8.66667 20.5882 8.66667C23.0206 8.66667 25 6.72244 25 4.33333C25 1.94422 23.0206 0 20.5882 0C18.1559 0 16.1765 1.94422 16.1765 4.33333C16.1765 4.52978 16.2088 4.71756 16.2353 4.90678L7.425 9.85111C6.61177 9.09231 5.53343 8.66844 4.41176 8.66667C1.97941 8.66667 0 10.6109 0 13Z" fill="white"/>
</svg>
