<svg width="242" height="370" viewBox="0 0 242 370" fill="none" xmlns="http://www.w3.org/2000/svg">
<path fill-rule="evenodd" clip-rule="evenodd" d="M146.682 41.5678C152.012 38.0369 156.348 33.0681 157.722 26.4813C161.678 7.50296 134.659 4.0339 126.974 11.9496C119.288 19.8653 113.152 43.8493 119.179 47.4275C121.583 48.8545 127.57 48.8304 134.151 47.0819L123.554 71.0394L144.39 77.1302L146.682 41.5678Z" fill="#B28B67"/>
<path fill-rule="evenodd" clip-rule="evenodd" d="M139.554 23.3147C135.643 34.2373 131.958 39.2134 128.499 38.2431C123.31 36.7877 119.819 32.2827 117.542 31.644C115.883 31.1785 115.679 33.3442 116.353 35.1815C116.91 36.6973 120.991 39.1529 120.447 41.1082C119.902 43.0635 116.831 40.5712 116.508 41.7309C115.974 43.6491 114.356 47.0835 117.71 48.0242C121.103 48.9763 131.176 50.4781 134.236 45.9452C136.211 43.0198 138.77 36.5274 141.911 26.4681C142.124 26.5015 142.337 26.5478 142.549 26.6074C145.457 27.4231 147.163 30.4246 146.359 33.3115C145.951 34.777 144.974 35.9312 143.731 36.6058C144.474 38.6547 145.343 40.8211 146.395 43.1002C153.248 41.2481 160.463 32.2233 157.458 20.7663C157.213 15.4979 154.334 11.9132 150.421 9.52575C147.379 7.13223 143.853 5.96943 140.6 5.98023C134.55 4.82581 128.775 5.13449 126.984 5.77734C125.438 11.3313 126.063 13.2833 135.362 15.7352C137.305 17.5662 138.482 20.1109 139.554 23.3147Z" fill="#191847"/>
<path fill-rule="evenodd" clip-rule="evenodd" d="M134.795 151.195L89.7622 264.733L59.5586 360.721H47.6318L93.8065 151.195L134.795 151.195Z" fill="#997659"/>
<path fill-rule="evenodd" clip-rule="evenodd" d="M143.863 151.195C144.343 191.093 151.336 244.81 152.453 247.297C153.198 248.955 178.912 270.04 229.595 310.551L221.381 319.308C161.579 284.574 130.295 264.891 127.527 260.258C123.376 253.31 109.862 189.365 99.0122 151.195H143.863Z" fill="#B28B67"/>
<path fill-rule="evenodd" clip-rule="evenodd" d="M230.75 307.611C233.508 308.586 235.408 309.511 236.45 310.386C237.718 311.449 239.39 313.213 241.467 315.676C240.233 317.146 229.144 330.359 208.201 355.316C203.931 353.488 202.592 351.35 204.183 348.903C205.774 346.456 207.076 344.406 208.089 342.755L215.338 317.437C215.477 316.95 215.985 316.668 216.472 316.807C216.481 316.81 216.489 316.812 216.497 316.815L220.364 318.041C223.046 316.791 224.927 315.524 226.005 314.24C226.88 313.196 227.668 311.401 228.369 308.854L228.369 308.854C228.637 307.877 229.647 307.303 230.625 307.572C230.667 307.583 230.708 307.596 230.75 307.611Z" fill="#E4E4E4"/>
<path fill-rule="evenodd" clip-rule="evenodd" d="M64.4422 356.38C65.4687 359.12 65.9819 361.17 65.9819 362.53C65.9819 364.185 65.7063 366.599 65.155 369.774C63.2357 369.774 45.986 369.774 13.406 369.774C12.0613 365.328 12.8375 362.928 15.7349 362.573C18.6322 362.219 21.0391 361.899 22.9555 361.613L47.0079 350.89C47.4707 350.684 48.0132 350.892 48.2195 351.355C48.223 351.363 48.2264 351.371 48.2298 351.379L49.7758 355.129C52.458 356.38 54.6375 357.006 56.3145 357.006C57.6769 357.006 59.5585 356.456 61.9591 355.355L61.9591 355.355C62.8804 354.933 63.9696 355.338 64.3919 356.259C64.4101 356.299 64.4269 356.339 64.4422 356.38Z" fill="#E4E4E4"/>
<path fill-rule="evenodd" clip-rule="evenodd" d="M104.517 350.834L47.8114 344.704L89.8373 151.195H140.627L104.517 350.834Z" fill="#69A1AC"/>
<path fill-rule="evenodd" clip-rule="evenodd" d="M217.866 296.424L180.67 340.281C141.493 297.657 118.652 269.845 112.149 256.845C105.645 243.845 99.7984 208.628 94.6091 151.195H151.789C154.623 201.722 156.534 228.161 157.521 230.513C158.508 232.864 178.623 254.834 217.866 296.424Z" fill="#89C5CC"/>
<path fill-rule="evenodd" clip-rule="evenodd" d="M65.0499 130.488L32.4396 145.915C24.262 146.546 17.2715 147.917 11.4682 150.027C10.0262 150.905 8.11404 152.868 13.3069 153.423C18.4998 153.978 23.9372 154.791 24.3218 156.636C24.7064 158.481 21.2229 159.962 22.2167 162.538C22.8792 164.256 28.1034 161.215 37.8892 153.417L68.5061 147.068L65.0499 130.488ZM175.195 151.487L156.365 148.099C161.07 187.063 163.674 207.758 164.177 210.181C165.309 215.635 159.45 222.545 156.785 226.348C162.42 230.176 163.641 220.063 170.724 225.027C177.188 229.557 181.468 236.399 190.567 232.953C191.686 232.529 193.216 230.44 190.893 228.161C185.105 222.481 177.024 212.918 176.216 210.111C175.115 206.284 174.774 186.742 175.195 151.487Z" fill="#B28B67"/>
<path fill-rule="evenodd" clip-rule="evenodd" d="M135.319 62.9618L127.831 60.1935C94.552 79.5022 73.9554 124.709 34.1175 143.242L40.641 155.274C103.053 159.174 128.923 104.172 135.319 62.9618Z" fill="#E87613"/>
<path fill-rule="evenodd" clip-rule="evenodd" d="M151.328 165.79C120.367 159.949 97.5933 155.653 83.0058 152.902C79.8838 152.313 81.3097 147.917 82.1836 145.728C92.2698 120.462 117.86 96.0034 124.803 58.6401L145.085 59.2679C156.515 88.5532 156.155 121.887 151.328 165.79Z" fill="#DDE3E9"/>
<path fill-rule="evenodd" clip-rule="evenodd" d="M165.32 89.4783C168.33 89.1949 170.948 87.7018 173.175 84.9991C182.774 73.3482 181.503 65.6941 174.255 61.8868C167.006 58.0796 159.255 61.634 147.012 59.3194C146.346 59.1935 145.728 59.1201 145.159 59.0991L138.935 58.2872C110.148 114.997 97.8577 154.14 102.064 175.717L155.746 185.865C157.55 193.903 159.435 200.736 161.402 206.362L176.029 209.128C185.669 164.755 182.099 124.872 165.32 89.4783Z" fill="#FF9B21"/>
<path fill-rule="evenodd" clip-rule="evenodd" d="M150.149 152.975C145.832 166.809 141.179 176.563 136.189 182.236L156.132 186.001C154.027 176.632 152.032 165.623 150.149 152.975Z" fill="black" fill-opacity="0.1"/>
</svg>
